HIERARCHY
ROOT Hips
{
  OFFSET 13.6774 106.653 -34.4427
  CHANNELS 6 Xposition Yposition Zposition Zrotation Xrotation Yrotation
  JOINT ToSpine
  {
    OFFSET -2.69724 7.43032 -0.144315
    CHANNELS 3 Zrotation Xrotation Yrotation
    JOINT Spine
    {
      OFFSET -0.0310711 10.7595 1.96963
      CHANNELS 3 Zrotation Xrotation Yrotation
      JOINT Spine1
      {
        OFFSET 19.9056 3.91189 0.764692
        CHANNELS 3 Zrotation Xrotation Yrotation
        JOINT Neck
        {
          OFFSET 25.9749 7.03908 -0.130764
          CHANNELS 3 Zrotation Xrotation Yrotation
          JOINT Head
          {
            OFFSET 9.52751 0.295786 -0.907742
            CHANNELS 3 Zrotation Xrotation Yrotation
            End Site
            {
              OFFSET 16.4037 0.713936 2.7358
            }
          }
        }
        JOINT LeftShoulder
        {
          OFFSET 17.7449 4.33886 11.7777
          CHANNELS 3 Zrotation Xrotation Yrotation
          JOINT LeftArm
          {
            OFFSET 0.911315 1.27913 9.80584
            CHANNELS 3 Zrotation Xrotation Yrotation
            JOINT LeftForeArm
            {
              OFFSET 28.6126 1.18197 -3.53199
              CHANNELS 3 Zrotation Xrotation Yrotation
              JOINT LeftHand
              {
                OFFSET 27.5088 0.0218783 0.327423
                CHANNELS 3 Zrotation Xrotation Yrotation
                End Site
                {
                  OFFSET 18.6038 -0.000155887 0.382096
                }
              }
            }
          }
        }
        JOINT RightShoulder
        {
          OFFSET 17.1009 2.89543 -12.2328
          CHANNELS 3 Zrotation Xrotation Yrotation
          JOINT RightArm
          {
            OFFSET 1.4228 0.178766 -10.211
            CHANNELS 3 Zrotation Xrotation Yrotation
            JOINT RightForeArm
            {
              OFFSET 28.733 1.87905 2.64907
              CHANNELS 3 Zrotation Xrotation Yrotation
              JOINT RightHand
              {
                OFFSET 27.4588 0.290562 -0.101845
                CHANNELS 3 Zrotation Xrotation Yrotation
                End Site
                {
                  OFFSET 17.8396 -0.255518 -0.000602873
                }
              }
            }
          }
        }
      }
    }
  }
  JOINT LeftUpLeg
  {
    OFFSET -5.61296 -2.22332 -10.2353
    CHANNELS 3 Zrotation Xrotation Yrotation
    JOINT LeftLeg
    {
      OFFSET 2.56703 -44.7417 -7.93097
      CHANNELS 3 Zrotation Xrotation Yrotation
      JOINT LeftFoot
      {
        OFFSET 3.16933 -46.5642 -3.96578
        CHANNELS 3 Zrotation Xrotation Yrotation
        JOINT LeftToeBase
        {
          OFFSET 0.346054 -6.02161 12.8035
          CHANNELS 3 Zrotation Xrotation Yrotation
          End Site
          {
            OFFSET 0.134235 -1.35082 5.13018
          }
        }
      }
    }
  }
  JOINT RightUpLeg
  {
    OFFSET -5.7928 -1.72406 10.6446
    CHANNELS 3 Zrotation Xrotation Yrotation
    JOINT RightLeg
    {
      OFFSET -2.57161 -44.7178 -7.85259
      CHANNELS 3 Zrotation Xrotation Yrotation
      JOINT RightFoot
      {
        OFFSET -3.10148 -46.5936 -4.03391
        CHANNELS 3 Zrotation Xrotation Yrotation
        JOINT RightToeBase
        {
          OFFSET -0.0828122 -6.13587 12.8035
          CHANNELS 3 Zrotation Xrotation Yrotation
          End Site
          {
            OFFSET -0.131328 -1.35082 5.13018
          }
        }
      }
    }
  }
}
MOTION
Frames: 19
Frame Time: 0.03333333333333333
0.0000 93.1000 0.0000 10.6431 -46.1112 -79.7399 -71.2132 -0.2694 87.3020 132.5450 75.8538 -46.1889 -10.2047 31.3268 -1.9693 -167.5672 32.6380 173.2794 -158.2132 72.2184 -166.7111 -0.5860 -12.3047 -23.9636 -65.1033 62.6547 -57.1382 14.3535 3.3138 -76.8229 -0.0006 -0.4123 0.2759 -2.0272 7.8976 29.0712 -102.0064 -30.4080 91.7789 18.9253 2.2778 96.0449 -0.1843 0.3549 0.1445 -1.8264 4.0786 103.6866 -9.0293 62.3105 -18.0077 -8.0363 -3.9036 0.2220 13.9178 -27.1290 23.1031 -62.0882 4.0595 86.1418 1.0594 36.2370 7.0941 -0.8057 19.1071 -2.0716 0.2463 -4.7832 -1.6423 
0.0000 93.1000 0.0000 12.6323 -47.8256 -77.1890 -71.2401 -0.3062 87.3238 128.6380 75.2646 -43.1196 -8.0924 29.6881 -1.0606 -164.7753 31.8781 171.9363 -161.3538 71.9500 -161.5210 -0.3158 -12.8797 -27.5677 -69.5401 59.8639 -58.2076 14.7530 2.8270 -78.7434 -0.1061 -0.0256 0.2155 -2.3256 7.7931 36.6754 -94.0009 -29.3463 87.8737 18.5984 0.2487 90.7764 -0.2386 -0.0808 -0.1947 -7.7748 3.9681 104.8438 -10.3419 63.1149 -17.1372 -7.7732 -4.7357 -0.1528 13.4151 -25.9387 19.9443 -57.6258 5.0672 86.1824 3.0498 54.5008 -0.9061 -3.2447 15.9542 -0.9909 0.4700 -4.1690 -8.8233 
0.0000 93.1000 0.0000 12.3646 -49.3025 -77.6083 -71.2701 -0.6135 87.3472 122.5103 74.3826 -38.9908 -5.9336 27.9466 -0.1643 -160.4307 29.9401 171.8234 -162.1752 70.2679 -156.8460 -0.3016 -12.9113 -30.8827 -77.0433 55.9859 -57.2596 17.1782 1.0552 -83.7896 -0.0943 0.2777 -0.0719 -2.8545 7.5167 42.6733 -82.9569 -29.8971 85.8991 17.5886 -2.6033 80.8054 -0.2090 -0.3067 -0.6319 -15.9616 2.0278 102.9806 -9.8840 65.1110 -15.0990 -4.2587 -11.0620 -0.9069 9.8999 -18.7747 13.9183 -48.8174 4.3055 86.0083 8.9288 76.3869 -14.2790 -6.8276 13.7590 0.0336 0.1416 -4.0881 -7.2727 
0.0000 93.1000 0.0000 12.5842 -50.7529 -79.4283 -71.2196 0.1990 87.8023 116.6562 72.8662 -37.1097 -4.9868 25.4665 -0.9365 -160.0694 27.2293 171.2422 -162.5136 67.7288 -154.7097 -0.2463 -12.2490 -32.7039 -83.6593 52.1706 -61.1719 19.4774 -0.1410 -88.7029 0.1966 0.8552 -0.3230 -2.2815 7.0480 45.1447 -73.5728 -32.3143 85.5482 14.2411 -5.8246 70.0089 0.9900 0.1138 0.2261 -23.6895 -0.7151 101.4747 -10.3633 65.5792 -14.1299 -0.6574 -18.4680 -2.3545 8.1280 -18.1593 15.0536 -33.9197 1.3596 85.2772 151.4573 79.4977 -162.0471 -12.4100 10.3043 1.0791 1.0192 -8.0332 1.5896 
0.0000 93.1000 0.0000 12.6828 -50.1971 -80.3788 -71.2106 0.3514 87.6575 112.5715 71.3761 -34.1060 -3.9948 23.6436 -0.3985 -162.7098 25.7627 173.5723 -164.7020 66.1034 -155.3083 0.3028 -12.8184 -33.1709 -84.0589 48.3382 -72.3085 22.0440 -1.6690 -93.2358 -0.1761 -0.5189 -0.0551 -2.7481 6.5176 47.2170 -69.1304 -36.6569 79.7098 9.0180 -4.7229 63.8758 -0.1607 0.4273 0.0918 -29.3578 -2.9662 99.3934 -9.0102 63.0680 -14.3108 0.1863 -21.9431 -2.1513 9.6488 -20.7398 18.0874 -14.9963 -0.9047 86.3085 172.5531 67.4920 173.6688 -17.3376 7.5856 1.4842 1.4374 -16.8271 2.1298 
0.0000 93.1000 0.0000 12.4132 -49.8026 -78.5566 -71.0242 -0.0050 87.4639 112.5927 69.7765 -30.9956 -4.4229 21.2123 0.8215 -163.9512 23.8289 173.2966 -160.3233 64.1121 -157.9570 -0.2010 -12.9588 -30.3369 -82.9322 48.3058 -83.1922 23.5835 -4.9928 -97.9528 -0.2484 -0.5775 -0.1809 -3.3296 6.8466 48.4959 -66.9976 -39.4668 68.6345 3.7957 -2.8471 63.7106 -0.5196 0.3439 -0.0740 -37.7132 -3.0808 95.7779 -6.8748 58.1424 -14.7086 -0.7380 -22.9559 -2.1980 11.4588 -22.7670 17.1745 -0.9975 -1.4251 85.3074 168.6652 69.3752 176.8207 -15.8502 3.1993 1.2331 1.8039 -20.2421 4.7305 
0.0000 93.1000 0.0000 12.7929 -49.5847 -75.1872 -71.0750 0.0082 87.3148 113.4856 67.1429 -29.9281 -5.6324 17.7287 3.4433 -162.9868 21.9982 173.1528 -155.5383 61.9567 -162.8729 -0.6717 -11.7790 -26.6934 -84.7781 50.0021 -84.0586 22.4826 -7.1866 -104.8590 0.0866 0.1795 0.2674 -2.8037 7.0176 47.8116 -62.9533 -42.0177 59.8827 1.5977 -1.0233 65.9974 0.0727 0.6402 0.4584 -48.0754 0.1008 92.0351 -5.1894 50.3786 -15.4039 -2.8164 -17.8058 -1.7401 12.6195 -26.1614 12.9696 5.7514 -2.3706 82.3511 170.0921 80.0341 -180.8150 -14.2935 -0.7416 1.1178 2.0831 -22.8983 -5.5833 
0.0000 93.1000 0.0000 11.6704 -49.8991 -73.5879 -71.3151 0.2307 87.0419 113.5983 65.3031 -28.1105 -6.1762 15.0483 6.7026 -163.9237 19.5954 174.4896 -151.9229 59.1649 -170.3299 0.1847 -11.4352 -25.3807 -83.8903 49.5229 -83.3063 19.1045 -7.0209 -108.9989 0.2759 -0.0818 0.2514 -2.5519 6.7352 47.4304 -63.0367 -43.7952 52.6303 0.5586 -0.6027 67.7525 -0.3564 0.4665 0.5714 -58.0984 2.7085 89.8120 -3.7426 41.2101 -14.2932 -6.8185 -1.6476 0.0307 12.3945 -26.4637 5.4316 7.1997 -2.8051 80.2471 27.1849 79.4801 -33.8977 -9.2435 -2.8841 0.6108 0.8212 -22.4496 -14.7852 
0.0000 93.1000 0.0000 10.1993 -49.5720 -75.0098 -71.1747 -0.3618 87.0885 113.7541 64.3785 -25.7878 -5.6324 14.1230 6.7506 -163.9895 18.1938 173.3635 -149.5020 57.4932 -173.0768 -0.3862 -11.2183 -24.5929 -82.1549 48.4443 -82.3712 15.8389 -5.9682 -106.8344 0.0150 -0.3579 0.1412 -3.1024 6.8424 46.5321 -66.9604 -43.1287 48.7692 0.6125 -0.6074 68.7222 -0.0197 0.0213 -0.1417 -63.5719 3.4586 87.8757 -3.8243 36.4084 -15.2267 -10.9239 10.3145 2.5857 6.2035 -15.5172 4.4060 4.2476 -2.2580 79.0002 4.0679 60.6021 3.2426 -5.9566 -0.8999 -0.0141 0.2046 -29.3273 -32.9887 
0.0000 93.1000 0.0000 8.2445 -50.0803 -76.6436 -71.2073 -0.0790 87.2567 109.5898 63.9862 -22.1483 -3.2240 13.9084 6.3310 -164.0799 17.8087 173.1891 -147.7206 57.2850 -175.6307 -0.1073 -12.3239 -26.4448 -80.1091 48.1743 -80.3677 13.3921 -3.0266 -98.2111 -0.2178 0.1891 -0.1031 -2.8501 6.9814 47.9580 -70.2231 -39.8765 50.4841 0.0670 -0.7486 69.5603 0.1620 -0.4024 -0.2840 -63.8420 0.8161 85.2914 -3.8836 45.3477 -10.1620 -10.4935 10.7476 2.4844 1.0494 -6.0313 5.7071 1.6960 -1.2119 79.2533 3.8253 53.5428 9.8308 -5.7241 0.7442 -0.0528 0.1711 -32.9447 -36.8942 
0.0000 93.1000 0.0000 8.3950 -52.0360 -80.1135 -71.3117 -0.4172 87.3205 113.6524 63.5990 -26.5059 -1.9938 15.0221 5.4672 -163.0827 18.2426 174.7330 -146.3565 57.4085 -172.9730 -0.1024 -13.6283 -28.5220 -78.1639 48.1262 -78.4790 9.4388 0.1877 -84.9513 -0.1636 0.2873 -0.1687 -2.9945 6.2272 50.1256 -74.1660 -35.7997 54.8251 0.8361 -0.7912 71.6859 0.1637 -0.1318 -0.4488 -59.2946 -1.7296 86.7006 -5.9443 62.6764 -2.4395 -10.4161 6.6028 2.1760 -0.2593 -2.4886 8.3365 -3.3837 -0.9106 80.0001 4.3402 57.4430 2.3828 -6.0525 -5.6587 0.1463 1.5226 -22.3847 -26.1919 
0.0000 93.1000 0.0000 5.6864 -54.6735 -83.0672 -71.7339 0.0178 87.3679 123.4738 64.0431 -35.1213 -2.9020 16.3780 3.6811 -163.1119 18.9843 177.6767 -149.4728 58.9643 -168.4271 0.0931 -13.7532 -30.2616 -75.0386 50.2977 -79.5860 7.9181 2.0414 -71.0318 -0.0313 0.2258 -0.0910 -2.7491 5.6465 50.1371 -77.1694 -32.8381 62.5573 4.8418 -2.2607 73.5271 -0.4124 0.2863 -0.1135 -50.0202 1.3329 88.9624 -24.5591 80.1775 16.2812 -8.6598 5.8504 1.9321 1.3054 -7.9255 9.1176 -11.7071 2.3096 79.5216 4.4892 60.6063 -2.9373 -6.1490 -18.9090 0.6969 1.5872 -2.8258 -14.6810 
0.0000 93.1000 0.0000 -1.4022 -55.6571 -88.0687 -71.3533 -0.5157 87.1696 131.4658 64.4137 -40.0917 -4.0057 19.0340 2.6068 -167.1136 19.7463 180.1889 -151.5894 59.0307 -168.0752 -0.1918 -13.2409 -31.4799 -72.2293 53.2548 -76.5810 7.7770 3.8402 -62.1328 0.3413 -0.1246 0.2958 -3.1080 5.8163 47.6094 -79.0707 -33.8923 73.5576 10.7049 -2.7843 76.7107 -0.0935 0.4156 0.0523 -35.9982 5.8786 91.9508 -141.2134 81.1952 131.1284 -5.4531 4.8139 0.8834 3.9061 -12.5539 9.0031 -20.9375 7.1436 80.1167 3.7401 59.6851 -3.2974 -6.9686 -27.9114 0.9846 1.4949 -0.7285 -17.6072 
0.0000 93.1000 0.0000 -8.5229 -53.9466 -96.2224 -71.2676 -0.2541 87.2655 134.4859 67.4480 -43.1595 -5.1640 22.8999 1.3118 -169.2013 20.0615 179.0946 -150.6513 59.2259 -172.1796 -0.1650 -12.6264 -32.2701 -68.1341 57.2370 -70.8306 5.1230 3.1155 -62.2252 -0.0964 0.0953 0.0306 -2.7683 7.5908 41.9490 -80.1167 -38.0663 82.6311 15.3388 -2.1742 83.6844 0.1983 -0.1225 -0.2698 -19.0603 7.9870 92.9830 -159.5167 76.3353 149.3511 -4.1468 1.6370 -0.0940 5.0365 -14.2366 9.0010 -28.9305 8.9984 83.2562 3.5792 56.7052 2.0167 -6.4871 -30.8478 1.1225 2.5164 -6.3261 -22.0614 
0.0000 93.1000 0.0000 -10.4247 -51.8406 -100.1723 -71.1755 -0.7287 87.1731 132.3529 71.0421 -44.2155 -6.9773 25.3955 1.8538 -167.1311 21.1804 177.1597 -149.0175 60.1818 -174.2848 -0.5732 -11.6784 -30.3360 -61.9070 60.4269 -65.5632 4.9782 1.6223 -66.8084 0.1600 -0.6569 0.3743 -2.8710 7.7947 37.9261 -80.9430 -42.1241 87.9373 18.6860 1.2698 93.5094 0.0468 0.6915 0.1334 -6.1458 7.7659 93.8610 -151.3746 80.2507 144.2922 -3.6434 0.1556 -0.0137 5.0768 -14.3515 11.2469 -39.2611 7.4663 86.9283 2.3928 50.5578 2.2274 -4.3061 -25.1465 0.5851 2.7082 -16.3288 -12.4062 
0.0000 93.1000 0.0000 -8.4254 -51.6876 -100.7904 -71.4159 -0.3092 87.6672 129.3560 73.5255 -43.2365 -8.5428 26.7294 2.6195 -165.1691 22.0958 175.1279 -148.9982 61.4464 -175.1055 -0.1848 -10.4147 -27.2369 -58.4336 64.4476 -60.5967 6.5517 1.8564 -69.2872 0.0673 -0.3692 0.1462 -2.1452 6.9868 35.9229 -80.1834 -43.0819 90.9302 20.9911 5.2128 102.5956 -0.1716 0.5440 0.1346 -0.0378 4.8921 94.0583 -37.3618 83.6403 31.4085 -3.5029 0.1088 -0.0150 4.9936 -15.0284 13.0004 -51.9517 3.7443 86.1961 0.2226 39.5927 3.2057 -3.2142 -9.9508 -0.0099 2.9273 -25.8902 6.2281 
0.0000 93.1000 0.0000 -9.4915 -52.9329 -101.9889 -71.2866 0.1431 87.6387 126.4969 75.2294 -39.9166 -7.6550 28.1465 1.2057 -164.2349 24.0226 177.1406 -153.0539 63.2172 -172.8427 0.6757 -10.9147 -25.2052 -62.9239 67.3599 -52.6437 4.7194 2.0352 -71.2424 -0.0479 0.4128 -0.5301 -1.7608 7.0817 33.0563 -79.9983 -45.1535 90.8556 20.3792 7.8821 109.4544 0.2342 -0.3403 -0.3972 0.0204 2.6771 93.9121 -7.0457 64.5198 -1.0746 -4.9550 1.2301 -0.2611 5.1837 -14.1413 13.3142 -63.2002 -1.2114 80.8780 -0.1983 30.6899 17.0065 0.2773 10.4502 -1.1512 2.1157 -27.4024 8.5790 
0.0000 93.1000 0.0000 -8.4267 -52.6250 -100.9843 -71.2762 0.1405 87.4396 115.4889 77.9768 -26.9584 -4.9533 29.0351 -0.6357 -164.3327 25.1935 176.4124 -156.8384 65.1938 -171.0713 0.3575 -11.4248 -23.4291 -71.0526 68.2142 -42.9387 4.9000 0.7817 -73.2641 0.0811 0.3166 -0.4706 -1.9529 7.0063 31.6120 -79.0790 -45.0073 88.8317 20.5741 8.2462 110.6978 -0.0578 -0.5267 -0.6516 -2.9789 0.8172 92.7787 -3.7762 42.1875 -9.9164 -8.6717 5.3020 1.2764 6.1246 -15.2449 14.1900 -69.8292 -4.1386 81.2241 -2.0999 28.5019 29.6712 1.7752 17.8889 -1.9786 2.1832 -20.3005 -19.0163 
0.0000 93.1000 0.0000 -9.3247 -52.7175 -99.2172 -71.3932 0.1571 87.2514 110.4834 78.3407 -20.0572 -3.8630 29.1282 -1.1681 -162.3869 25.0989 176.5033 -158.7590 65.2661 -166.9458 0.3086 -10.8814 -24.2506 -79.3049 67.4595 -36.6734 6.7354 1.1745 -77.2786 -0.0266 0.2388 -0.0307 -1.8053 6.8179 32.9883 -77.1378 -44.2359 85.9756 20.8023 6.1831 105.6318 -0.1167 -0.1112 -0.2481 -5.0469 1.9126 93.8225 -2.7532 32.3039 -13.2891 -10.3798 8.9810 1.6025 8.5089 -19.3535 16.1769 -71.1083 3.6478 89.1732 0.6664 38.5994 2.8289 -2.3057 13.8472 -0.9104 1.0595 -14.3187 -11.3275 
